# xmcd
#
# Track frame offsets: 
#        150
#        20313
#        48444
#        61675
#        77423
#        93944
#        115320
#        124683
#        140005
#        156104
#        175076
#        192819
#        211687
#        229183
#        242604
#        257154
#        275134
#        295373
#        319671
#
# Disc length: 4539 seconds
#
# Revision: 0
# Processed by: cddbd v1.5.2PL0 Copyright (c) Steve Scherf et al.
# Submitted via: ExactAudioCopy v1.0b3
#
DISCID=0411b913
DTITLE=Il Guardiano Del Faro - Il Sole and La Luna [CD 2)
DYEAR=2009
DGENRE=Instrumental
TTITLE0=Amarti E Non Averti
TTITLE1=Immenso Mare Immenso Amore
TTITLE2=Pensare Capire Amare
TTITLE3=Male D'Amore (Tema Conduttore Originale Del Film 'La Orca')
TTITLE4=Ma Ci Pensi
TTITLE5=Non Una Corda Al Cuore
TTITLE6=Sandy
TTITLE7=Amore Grande Amore Libero
TTITLE8=Concerto D'Amore
TTITLE9=Cosa Fai Di Questo Amore
TTITLE10=Chi Più Di Te
TTITLE11=Sarebbe Bello
TTITLE12=Segreto Amore
TTITLE13=Tu Immenso Amore
TTITLE14=Lady Moon
TTITLE15=Per Vivere
TTITLE16=Domani
TTITLE17=E Se Tu
TTITLE18=Buonanotte Papà
EXTD=
EXTT0=
EXTT1=
EXTT2=
EXTT3=
EXTT4=
EXTT5=
EXTT6=
EXTT7=
EXTT8=
EXTT9=
EXTT10=
EXTT11=
EXTT12=
EXTT13=
EXTT14=
EXTT15=
EXTT16=
EXTT17=
EXTT18=
PLAYORDER=
